<svg id="Layer_1" data-name="Layer 1" xmlns="http://www.w3.org/2000/svg" width="30px" height="30px" viewBox="0 0 397.68 397.68"><defs><style>.cls-1{fill:#81c341;}</style></defs><path class="cls-1" d="M307.59,354.34c-109.82,0-198.84,89-198.84,198.84S197.77,752,307.59,752s198.84-89,198.84-198.85S417.4,354.34,307.59,354.34Zm136.58,143L309.69,631.85l-24.6,23.09a38.13,38.13,0,0,1-52.59-.38L209,631.85l-38-38.06a20.12,20.12,0,0,1,0-28.47l21.84-21.85a20.13,20.13,0,0,1,28.47,0l23.79,23.8a20.13,20.13,0,0,0,28.47,0L393.86,447a20.12,20.12,0,0,1,28.46,0l21.85,21.85A20.12,20.12,0,0,1,444.17,497.3Z" transform="translate(-108.75 -354.34)"/></svg>